<svg xmlns="http://www.w3.org/2000/svg" xmlns:xlink="http://www.w3.org/1999/xlink" width="42" height="45" viewBox="0 0 42 45">
  <defs>
    <linearGradient id="linear-gradient" x1="0.5" x2="0.5" y2="1" gradientUnits="objectBoundingBox">
      <stop offset="0" stop-color="#ff3a99"/>
      <stop offset="1" stop-color="#b21c65"/>
    </linearGradient>
  </defs>
  <path id="account-icon" d="M39,44.963,23.318,45c-1.585,0-3.422-.374-4.422-1.642s-1.038-3.284-.712-4.9a25.445,25.445,0,0,1,7.439-13.316A16.426,16.426,0,0,1,33,21.157c-.566-.42-.9-.726-.9-.726a11.306,11.306,0,0,1-4.389-9.058A11.269,11.269,0,0,1,38.905,0h.19A11.269,11.269,0,0,1,50.286,11.374,11.306,11.306,0,0,1,45.9,20.432s-.33.306-.9.726a16.426,16.426,0,0,1,7.377,3.988,25.445,25.445,0,0,1,7.439,13.316c.325,1.612.292,3.622-.712,4.9S56.266,45,54.682,45Zm0-2.538,16.32-.038a.5.5,0,0,1,.179.033,2.729,2.729,0,0,0,1.648-.719c.693-.7.421-1.9.309-2.453-1.779-8.821-7.926-16.017-17.834-15.756l-.082.008c-.147.006-.3.01-.444.01h-.19c-.149,0-.3,0-.444-.01l-.082-.008c-9.907-.261-16.055,6.935-17.834,15.756-.112.555-.384,1.755.309,2.453a2.729,2.729,0,0,0,1.648.719.5.5,0,0,1,.179-.033ZM30.8,11.374a8.464,8.464,0,0,0,7.849,8.553l.261,0h.19l.261,0A8.464,8.464,0,0,0,47.2,11.374,8.449,8.449,0,0,0,39,2.808,8.449,8.449,0,0,0,30.8,11.374Z" transform="translate(-18)" fill="url(#linear-gradient)"/>
</svg>
