<svg xmlns="http://www.w3.org/2000/svg" xmlns:xlink="http://www.w3.org/1999/xlink" width="46.008" height="46" viewBox="0 0 46.008 46">
  <defs>
    <linearGradient id="linear-gradient" x1="0.5" x2="0.5" y2="1" gradientUnits="objectBoundingBox">
      <stop offset="0" stop-color="#fff"/>
      <stop offset="1" stop-color="#818181"/>
    </linearGradient>
  </defs>
  <path id="chart-icon" d="M44.736,13.8a1.318,1.318,0,0,0-1.054-.527H10.461L8.738,1.133A1.318,1.318,0,0,0,7.433,0H1.318a1.318,1.318,0,0,0,0,2.637h4.97l3.7,26.16a6.688,6.688,0,0,0,2.086,3.923,3.953,3.953,0,0,0,1.475,6.867,3.955,3.955,0,1,0,7.4.139h11a3.955,3.955,0,1,0,3.728-2.636H14.59a1.318,1.318,0,0,1,0-2.637H34.339a6.585,6.585,0,0,0,6.33-4.78l4.278-14.715A1.318,1.318,0,0,0,44.736,13.8ZM35.684,39.727a1.318,1.318,0,1,1-1.318,1.318A1.32,1.32,0,0,1,35.684,39.727Zm-18.457,0a1.318,1.318,0,1,1-1.318,1.318A1.32,1.32,0,0,1,17.227,39.727Zm20.9-10.769a3.94,3.94,0,0,1-3.793,2.859H16.515A3.962,3.962,0,0,1,12.6,28.408l-1.764-12.5H41.925L38.131,28.957Z" transform="translate(0.5 0.5)" stroke="rgba(0,0,0,0)" stroke-miterlimit="10" stroke-width="1" fill="url(#linear-gradient)"/>
</svg>
