<svg xmlns="http://www.w3.org/2000/svg" width="76" height="164" viewBox="0 0 76 164">
  <g id="elipse-detail" transform="translate(-1381.5 -1008.5)">
    <circle id="Elipse" cx="6" cy="6" r="6" transform="translate(1457.5 1008.5) rotate(90)" fill="#fff"/>
    <circle id="Elipse-2" data-name="Elipse" cx="6" cy="6" r="6" transform="translate(1457.5 1046.5) rotate(90)" fill="#fff"/>
    <circle id="Elipse-3" data-name="Elipse" cx="6" cy="6" r="6" transform="translate(1457.5 1084.5) rotate(90)" fill="#fff"/>
    <circle id="Elipse-4" data-name="Elipse" cx="6" cy="6" r="6" transform="translate(1457.5 1122.5) rotate(90)" fill="#fff"/>
    <circle id="Elipse-5" data-name="Elipse" cx="6" cy="6" r="6" transform="translate(1457.5 1160.5) rotate(90)" fill="#fff"/>
    <circle id="Elipse-6" data-name="Elipse" cx="6" cy="6" r="6" transform="translate(1425.5 1008.5) rotate(90)" fill="#fff"/>
    <circle id="Elipse-7" data-name="Elipse" cx="6" cy="6" r="6" transform="translate(1425.5 1046.5) rotate(90)" fill="#fff"/>
    <circle id="Elipse-8" data-name="Elipse" cx="6" cy="6" r="6" transform="translate(1425.5 1084.5) rotate(90)" fill="#fff"/>
    <circle id="Elipse-9" data-name="Elipse" cx="6" cy="6" r="6" transform="translate(1425.5 1122.5) rotate(90)" fill="#fff"/>
    <circle id="Elipse-10" data-name="Elipse" cx="6" cy="6" r="6" transform="translate(1425.5 1160.5) rotate(90)" fill="#fff"/>
    <circle id="Elipse-11" data-name="Elipse" cx="6" cy="6" r="6" transform="translate(1393.5 1008.5) rotate(90)" fill="#fff"/>
    <circle id="Elipse-12" data-name="Elipse" cx="6" cy="6" r="6" transform="translate(1393.5 1046.5) rotate(90)" fill="#fff"/>
    <circle id="Elipse-13" data-name="Elipse" cx="6" cy="6" r="6" transform="translate(1393.5 1084.5) rotate(90)" fill="#fff"/>
    <circle id="Elipse-14" data-name="Elipse" cx="6" cy="6" r="6" transform="translate(1393.5 1122.5) rotate(90)" fill="#fff"/>
    <circle id="Elipse-15" data-name="Elipse" cx="6" cy="6" r="6" transform="translate(1393.5 1160.5) rotate(90)" fill="#fff"/>
  </g>
</svg>
