<svg id="help-center-icon" xmlns="http://www.w3.org/2000/svg" xmlns:xlink="http://www.w3.org/1999/xlink" width="45" height="45" viewBox="0 0 45 45">
  <defs>
    <linearGradient id="linear-gradient" x1="0.5" x2="0.5" y2="1" gradientUnits="objectBoundingBox">
      <stop offset="0" stop-color="#ff3a99"/>
      <stop offset="1" stop-color="#b21c65"/>
    </linearGradient>
  </defs>
  <path id="Caminho_5" data-name="Caminho 5" d="M45,30.454A14.579,14.579,0,0,0,34.348,16.437,17.182,17.182,0,1,0,2.383,25.916L.063,34.3l8.386-2.319a17.119,17.119,0,0,0,7.988,2.365,14.55,14.55,0,0,0,21.418,8.63l7.081,1.959-1.959-7.081A14.494,14.494,0,0,0,45,30.454ZM8.865,29.132,3.845,30.52,5.234,25.5l-.317-.5A14.541,14.541,0,1,1,9.36,29.448Zm32.29,12.024L37.43,40.124l-.5.324a11.914,11.914,0,0,1-17.769-6.2A17.215,17.215,0,0,0,34.251,19.163a11.914,11.914,0,0,1,6.2,17.769l-.324.5Zm0,0" fill="url(#linear-gradient)"/>
  <path id="Caminho_6" data-name="Caminho 6" d="M180.5,271h2.637v2.637H180.5Zm0,0" transform="translate(-164.636 -247.182)" fill="url(#linear-gradient)"/>
  <path id="Caminho_7" data-name="Caminho 7" d="M143.41,95.274a2.61,2.61,0,0,1-.858,1.946l-3.1,2.834v3.217h2.637v-2.056l2.24-2.05a5.273,5.273,0,1,0-8.832-3.892h2.637a2.637,2.637,0,0,1,5.273,0Zm0,0" transform="translate(-123.591 -82.09)" fill="url(#linear-gradient)"/>
</svg>
