<svg xmlns="http://www.w3.org/2000/svg" viewBox="0 0 103.95 107.68"><defs><style>.cls-1{fill:#ffffff;}</style></defs><title>logo-min</title><g id="Camada_2" data-name="Camada 2"><g id="Layer_1" data-name="Layer 1"><path class="cls-1" d="M5.31,28.17S11.25,51.51,28.86,49.6s23.27-7.44,31.53-18.5S58.14,4.14,53.77.87a2.11,2.11,0,0,0-3.41,0C49,2.37,40.87,10,40.66,21.62c.07,2.52.71,7.05,5.74,13.37.34.48.82,1.09,1.29.21s1.57-3.76,1.57-3.76-7.91-9.28,1.23-25.59c1-1.5,1.44-3.62,3.28,0s5.49,9.73,3.68,20.47S36.16,47.48,26.19,44.82,10.77,33.08,9.68,31.1s-1.44-2.52,1.09-2.59,17-.48,23.62,11.67c1,.2,4,.48,4,.48s.89.07.21-1.3S33,19.43,6.81,25.92A1.8,1.8,0,0,0,5.31,28.17Z"/><path class="cls-1" d="M5.31,79.51s5.94-23.34,23.55-21.43,23.27,7.44,31.53,18.5-2.25,27-6.62,30.23a2.11,2.11,0,0,1-3.41,0c-1.37-1.5-9.49-9.14-9.7-20.75.07-2.52.71-7.06,5.74-13.37.34-.48.82-1.1,1.29-.21s1.57,3.76,1.57,3.76-7.91,9.28,1.23,25.59c1,1.5,1.44,3.62,3.28,0s5.49-9.73,3.68-20.48S36.16,60.2,26.19,62.86,10.77,74.6,9.68,76.58s-1.44,2.52,1.09,2.59,17,.48,23.62-11.67c1-.21,4-.48,4-.48s.89-.07.21,1.3S33,88.25,6.81,81.76A1.8,1.8,0,0,1,5.31,79.51Z"/><path class="cls-1" d="M97.67,26.42S74.52,19.78,67.29,36,62,59.8,67.36,72.5,91.77,84.16,96.8,82a2.11,2.11,0,0,0,1.72-3c-.6-1.94-3.11-12.81-13-18.83C83.28,59,79,57.31,71.05,58.46c-.58,0-1.35.16-.83,1s2.45,3.24,2.45,3.24,12-2.15,21.48,14c.82,1.59,2.4,3.07-1.65,2.83S81.33,79.36,73,72.38s-7.53-29.06-.2-36.32,17.91-7.4,20.17-7.35,2.91,0,1.69,2.26-8.16,14.91-22,14.5c-.69.78-2.44,3.24-2.44,3.24s-.51.73,1,.83,20,5.22,27.65-20.68A1.81,1.81,0,0,0,97.67,26.42Z"/><path class="cls-1" d="M37.17,51.16a12.22,12.22,0,0,1,0,5.32c1.27.24,3.57.91,4,1.49.4-.69.87-5.91,0-8.26A16.08,16.08,0,0,1,37.17,51.16Z"/><path class="cls-1" d="M62,41.81a12.11,12.11,0,0,1-4.71-2.5c-.8,1-2.47,2.74-3.21,2.89.43.67,4.82,3.54,7.3,3.86A16,16,0,0,1,62,41.81Z"/><path class="cls-1" d="M57.3,68.1A12.18,12.18,0,0,1,62,65.52c-.4-1.22-.93-3.56-.66-4.26-.8,0-5.59,2.1-7.22,4A15.83,15.83,0,0,1,57.3,68.1Z"/><path class="cls-1" d="M10.61,44.65l2.94,2.76S7,50.26,4.81,53.3c-.46.46-.82.64,0,1.38s6,4.5,9.84,5.15A42.21,42.21,0,0,1,11.16,63S4.26,59.74.49,54.86c-.46-.55-.83-1,0-1.84S3.34,49.07,10.61,44.65Z"/><path class="cls-1" d="M93.35,44.65,90.4,47.41s6.53,2.85,8.74,5.89c.46.46.83.64,0,1.38s-6,4.5-9.84,5.15A42.21,42.21,0,0,0,92.79,63s6.9-3.21,10.67-8.09c.46-.55.83-1,0-1.84S100.61,49.07,93.35,44.65Z"/><path class="cls-1" d="M23.51,23.34s-.29-8.63,1.84-13.55c.19-.45.12-.8,1.17-.67a26.85,26.85,0,0,1,12.92,5c0,.25-.86,3.78-.86,3.78s-5.36-4.26-10.19-5.08c-.25,0-.76-.38-.88,1.05a27.27,27.27,0,0,0,.54,10.91C26.81,24.26,23.51,23.34,23.51,23.34Z"/><path class="cls-1" d="M81.33,23.1s-.25-8.63-2.68-13.41c-.22-.43-.18-.78-1.22-.59a26.77,26.77,0,0,0-12.58,5.75c0,.25,1.09,3.71,1.09,3.71S71,14,75.79,12.86c.26,0,.74-.43.95,1a27.33,27.33,0,0,1,.15,10.93C78.09,24.23,81.33,23.1,81.33,23.1Z"/><path class="cls-1" d="M23.51,85s-.29,8.63,1.84,13.55c.19.45.12.79,1.17.67a26.85,26.85,0,0,0,12.92-5c0-.26-.86-3.78-.86-3.78s-5.36,4.25-10.19,5.08c-.25,0-.76.38-.88-1.05a27.32,27.32,0,0,1,.54-10.92C26.81,84.05,23.51,85,23.51,85Z"/><path class="cls-1" d="M81.33,85.2s-.25,8.64-2.68,13.41c-.22.44-.18.79-1.22.6a26.89,26.89,0,0,1-12.58-5.75c0-.25,1.09-3.71,1.09-3.71s5.09,4.57,9.85,5.7c.26,0,.74.42.95-1a27.33,27.33,0,0,0,.15-10.93C78.09,84.08,81.33,85.2,81.33,85.2Z"/><path class="cls-1" d="M52.14,59.78a5.94,5.94,0,1,1,5.94-5.94A5.95,5.95,0,0,1,52.14,59.78Zm0-9.11a3.17,3.17,0,1,0,3.16,3.17A3.17,3.17,0,0,0,52.14,50.67Z"/></g></g></svg>