<svg xmlns="http://www.w3.org/2000/svg" viewBox="0 0 491.29 512"><defs><style>.cls-1{fill:#fa2626;}</style></defs><title>sale</title><g id="Camada_2" data-name="Camada 2"><g id="sale"><path class="cls-1" d="M467.6,262.63a15,15,0,0,1,0-13.26l19.1-39.06a44.46,44.46,0,0,0-19.18-59L429.11,130.9a15,15,0,0,1-7.8-10.73L413.8,77.35a44.45,44.45,0,0,0-50.21-36.48l-43,6.09a15,15,0,0,1-12.62-4.1L276.67,12.63a44.43,44.43,0,0,0-62.06,0L183.36,42.86A15,15,0,0,1,170.75,47l-43-6.09A44.43,44.43,0,0,0,77.49,77.35L70,120.17a15,15,0,0,1-7.79,10.73L23.77,151.28a44.46,44.46,0,0,0-19.18,59l19.1,39.06a15,15,0,0,1,0,13.26L4.59,301.7a44.44,44.44,0,0,0,19.18,59L62.18,381.1A15,15,0,0,1,70,391.83l7.52,42.83a44.42,44.42,0,0,0,43.81,36.93,46.34,46.34,0,0,0,6.4-.45l43.05-6.09a15,15,0,0,1,12.61,4.1l31.25,30.23a44.46,44.46,0,0,0,62.06,0l31.26-30.23a15,15,0,0,1,12.61-4.1l43,6.09a44.45,44.45,0,0,0,50.21-36.48l7.51-42.83a15,15,0,0,1,7.8-10.73l38.41-20.38a44.45,44.45,0,0,0,19.18-59Zm-281-139.51a54.14,54.14,0,1,1-54.14,54.13A54.2,54.2,0,0,1,186.58,123.12ZM158.64,363.89A14.76,14.76,0,0,1,137.76,343L332.65,148.12A14.76,14.76,0,0,1,353.53,169Zm146.06,25a54.14,54.14,0,1,1,54.14-54.14A54.21,54.21,0,0,1,304.7,388.89Z"/><path class="cls-1" d="M304.7,310.14a24.61,24.61,0,1,0,24.61,24.61A24.64,24.64,0,0,0,304.7,310.14Z"/><path class="cls-1" d="M186.58,201.86A24.61,24.61,0,1,0,162,177.25,24.64,24.64,0,0,0,186.58,201.86Z"/></g></g></svg>