<svg xmlns="http://www.w3.org/2000/svg" xmlns:xlink="http://www.w3.org/1999/xlink" viewBox="0 0 37 40"><defs><style>.cls-1{fill:url(#Gradiente_sem_nome_14);}.cls-2{opacity:0.17;}.cls-3{fill:#fff;}</style><linearGradient id="Gradiente_sem_nome_14" x1="-278.75" y1="407.63" x2="-278.75" y2="406.63" gradientTransform="matrix(37, 0, 0, -40, 10330.83, 16306.13)" gradientUnits="userSpaceOnUse"><stop offset="0" stop-color="#ff3a99"/><stop offset="1" stop-color="#b21c65"/></linearGradient></defs><title>search-icon</title><g id="Camada_2" data-name="Camada 2"><g id="search-icon"><path id="Caminho_9" data-name="Caminho 9" class="cls-1" d="M36.57,37.17,25.24,24.35A14.36,14.36,0,0,0,26.53,6.14,14.68,14.68,0,0,0,8.78,1.2a14.44,14.44,0,0,0,5.84,27.72,14.54,14.54,0,0,0,8-2.37L34,39.42a1.71,1.71,0,0,0,2.43.15,1.71,1.71,0,0,0,.15-2.4ZM3.43,14.43a11.19,11.19,0,1,1,11.3,11.08h-.11A11.13,11.13,0,0,1,3.43,14.43Z"/><g id="Caminho_8" data-name="Caminho 8" class="cls-2"><path id="Caminho_10" data-name="Caminho 10" class="cls-3" d="M17.43,23.11a.85.85,0,0,1-.85-.86.87.87,0,0,1,.39-.72A10.9,10.9,0,0,0,21,17.17a13.73,13.73,0,0,0,.78-5.82.86.86,0,0,1,.78-.93h0a.88.88,0,0,1,.92.79,15.77,15.77,0,0,1-.91,6.67A12.93,12.93,0,0,1,17.88,23a1.13,1.13,0,0,1-.45.09Z"/></g></g></g></svg>