<svg xmlns="http://www.w3.org/2000/svg" viewBox="0 0 74.65 189.7"><defs><style>.cls-1{fill:#fff;}</style></defs><title>slider-arrow</title><g id="Camada_2" data-name="Camada 2"><g id="Camada_1-2" data-name="Camada 1"><path class="cls-1" d="M1.66.38,3.09,1.52,4.47,2.69,7.22,5.05C9,6.65,10.78,8.26,12.48,9.9c3.45,3.27,6.73,6.65,10,10.06,6.42,6.83,12.44,13.92,18.22,21.14L45,46.55l4.14,5.54c2.81,3.67,5.39,7.47,8.06,11.22s5.13,7.62,7.7,11.43L72.2,86.4l0,0a15.81,15.81,0,0,1,0,16.87c-2.45,3.88-4.87,7.78-7.36,11.64L61,120.67c-1.27,1.91-2.53,3.84-3.88,5.7-2.66,3.76-5.26,7.55-8.06,11.22-1.39,1.84-2.73,3.71-4.15,5.53l-4.29,5.45c-5.78,7.23-11.8,14.31-18.22,21.15-3.23,3.41-6.5,6.79-9.95,10.06-1.7,1.65-3.47,3.26-5.25,4.86L4.47,187l-1.38,1.18-1.43,1.14-.24.19a.88.88,0,0,1-1.3-1.13l14-23.73L28.28,141c4.7-7.89,9.51-15.71,14.27-23.57l14.3-23.54v1.88L42.55,72.25C37.79,64.39,33,56.57,28.28,48.68L14.12,25.05.12,1.32A.88.88,0,0,1,1.42.19Z"/></g></g></svg>