<svg xmlns="http://www.w3.org/2000/svg" xmlns:xlink="http://www.w3.org/1999/xlink" width="30" height="32" viewBox="0 0 30 32">
  <defs>
    <linearGradient id="linear-gradient" x1="0.5" x2="0.5" y2="1" gradientUnits="objectBoundingBox">
      <stop offset="0" stop-color="#fff"/>
      <stop offset="1" stop-color="#fff"/>
    </linearGradient>
  </defs>
  <path id="white-account-icon" d="M33,31.974,21.8,32a4,4,0,0,1-3.159-1.168,4.415,4.415,0,0,1-.509-3.482,18.074,18.074,0,0,1,5.313-9.469,11.749,11.749,0,0,1,5.27-2.836c-.4-.3-.64-.516-.64-.516a8.027,8.027,0,0,1-3.135-6.441A8.03,8.03,0,0,1,32.932,0h.136a8.03,8.03,0,0,1,7.993,8.088,8.027,8.027,0,0,1-3.135,6.441s-.236.218-.64.516a11.749,11.749,0,0,1,5.27,2.836,18.074,18.074,0,0,1,5.313,9.469,4.415,4.415,0,0,1-.509,3.482A4,4,0,0,1,44.2,32Zm0-1.8,11.657-.027a.356.356,0,0,1,.128.023,1.954,1.954,0,0,0,1.177-.511c.495-.5.3-1.349.22-1.744-1.27-6.273-5.662-11.39-12.738-11.2l-.059.006c-.105,0-.211.007-.317.007h-.136c-.106,0-.212,0-.317-.007l-.059-.006c-7.077-.186-11.468,4.932-12.738,11.2-.08.395-.275,1.248.22,1.744a1.954,1.954,0,0,0,1.177.511.356.356,0,0,1,.128-.023ZM27.139,8.088a6.03,6.03,0,0,0,5.606,6.082h.509a6.03,6.03,0,0,0,5.606-6.082,5.865,5.865,0,1,0-11.721,0Z" transform="translate(-18)" fill="url(#linear-gradient)"/>
</svg>
