<svg xmlns="http://www.w3.org/2000/svg" width="342.107" height="354.341" viewBox="0 0 342.107 354.341">
  <g id="white-logo-min" transform="translate(0.003 -0.003)">
    <path id="Caminho_14" data-name="Caminho 14" d="M5.451,92.7S25,169.506,82.95,163.22s76.578-24.484,103.761-60.881-7.4-88.722-21.786-99.483a6.944,6.944,0,0,0-11.222,0c-4.476,4.936-31.23,30.046-31.921,68.285.23,8.293,2.337,23.2,18.89,44,1.119,1.58,2.7,3.587,4.245.691s5.167-12.374,5.167-12.374-26.031-30.539,4.048-84.213c3.291-4.936,4.739-11.913,10.794,0s18.067,32.02,12.11,67.364S106.974,156.243,74.164,147.49s-50.745-38.635-54.332-45.151-4.739-8.293,3.587-8.523,55.945-1.58,77.73,38.4c3.291.658,13.163,1.58,13.163,1.58s2.929.23.691-4.278S96.575,63.935,10.387,85.292a5.924,5.924,0,0,0-4.936,7.4Z" transform="translate(12.032 0)" fill="#fff"/>
    <path id="Caminho_15" data-name="Caminho 15" d="M5.451,128.858S25,52.049,82.95,58.335s76.578,24.484,103.761,60.881-7.4,88.853-21.786,99.483a6.944,6.944,0,0,1-11.222,0c-4.508-4.936-31.23-30.079-31.921-68.285.23-8.293,2.337-23.234,18.89-44,1.119-1.58,2.7-3.62,4.245-.691s5.167,12.374,5.167,12.374-26.031,30.539,4.048,84.213c3.291,4.936,4.739,11.913,10.794,0s18.067-32.02,12.11-67.4-70.063-69.6-102.872-60.848S23.419,112.7,19.832,119.216s-4.739,8.293,3.587,8.523,55.945,1.58,77.73-38.4c3.291-.691,13.163-1.58,13.163-1.58s2.929-.23.691,4.278S96.575,157.62,10.387,136.262a5.924,5.924,0,0,1-4.936-7.4Z" transform="translate(12.032 132.792)" fill="#fff"/>
    <path id="Caminho_16" data-name="Caminho 16" d="M178.07,29.5S101.887,7.651,78.094,61.029s-17.409,78.323.23,120.117,80.33,38.371,96.883,31.263a6.944,6.944,0,0,0,5.66-9.873c-1.975-6.384-10.235-42.156-42.781-61.967-7.372-3.85-21.456-9.412-47.619-5.627-1.909,0-4.443.527-2.731,3.291S95.8,148.9,95.8,148.9s39.49-7.075,70.688,46.072c2.7,5.232,7.9,10.1-5.43,9.313s-36.759-.559-64.172-23.53S72.1,85.118,96.226,61.227,155.166,36.874,162.6,37.039s9.576,0,5.562,7.437-26.853,49.067-72.4,47.718c-2.271,2.567-8.03,10.662-8.03,10.662s-1.678,2.4,3.291,2.731,65.817,17.178,90.992-68.055a5.956,5.956,0,0,0-3.949-8.03Z" transform="translate(143.356 57.435)" fill="#fff"/>
    <path id="Caminho_17" data-name="Caminho 17" d="M37.17,54.482a40.214,40.214,0,0,1,0,17.507c4.179.79,11.748,2.995,13.163,4.9,1.316-2.271,2.863-19.449,0-27.183A52.918,52.918,0,0,1,37.17,54.482Z" transform="translate(85.159 113.872)" fill="#fff"/>
    <path id="Caminho_18" data-name="Caminho 18" d="M80.144,47.537a39.852,39.852,0,0,1-15.5-8.227c-2.633,3.291-8.128,9.017-10.564,9.511,1.415,2.2,15.862,11.65,24.023,12.7a52.654,52.654,0,0,1,2.04-13.986Z" transform="translate(123.898 90.047)" fill="#fff"/>
    <path id="Caminho_19" data-name="Caminho 19" d="M64.585,83.77a40.083,40.083,0,0,1,15.467-8.49c-1.316-4.015-3.061-11.716-2.172-14.019-2.633,0-18.4,6.911-23.76,13.163A52.1,52.1,0,0,1,64.585,83.77Z" transform="translate(123.989 140.332)" fill="#fff"/>
    <path id="Caminho_20" data-name="Caminho 20" d="M34.924,44.65,44.6,53.733S23.044,63.112,15.837,73.116c-1.514,1.514-2.7,2.106,0,4.541S35.582,92.466,48.219,94.605a138.909,138.909,0,0,1-11.485,10.432S14.027,94.309,1.62,78.25c-1.514-1.81-2.731-3.291,0-6.055S11,59.2,34.924,44.65Z" transform="translate(0 102.28)" fill="#fff"/>
    <path id="Caminho_21" data-name="Caminho 21" d="M102.628,44.65,92.92,53.733s21.489,9.379,28.762,19.383c1.514,1.514,2.731,2.106,0,4.541S101.937,92.466,89.3,94.605a138.9,138.9,0,0,0,11.485,10.432S123.492,94.474,135.9,78.414c1.514-1.81,2.731-3.291,0-6.055S126.52,59.2,102.628,44.65Z" transform="translate(204.582 102.28)" fill="#fff"/>
    <path id="Caminho_22" data-name="Caminho 22" d="M23.54,55.979s-.954-28.4,6.055-44.591c.625-1.481.395-2.633,3.85-2.2A88.36,88.36,0,0,1,75.964,25.637c0,.823-2.83,12.439-2.83,12.439S55.495,24.058,39.6,21.359c-.823,0-2.5-1.251-2.9,3.455a89.742,89.742,0,0,0,1.777,35.9C34.4,59.007,23.54,55.979,23.54,55.979Z" transform="translate(53.835 20.823)" fill="#fff"/>
    <path id="Caminho_23" data-name="Caminho 23" d="M119.083,55.293s-.823-28.4-8.82-44.131c-.724-1.415-.592-2.567-4.015-1.942a88.1,88.1,0,0,0-41.4,18.922c0,.823,3.587,12.209,3.587,12.209S85.089,25.347,100.852,21.6c.856,0,2.435-1.415,3.126,3.291a89.94,89.94,0,0,1,.494,35.969C108.421,59.012,119.083,55.293,119.083,55.293Z" transform="translate(148.57 20.719)" fill="#fff"/>
    <path id="Caminho_24" data-name="Caminho 24" d="M23.54,88.322s-.954,28.4,6.055,44.591c.625,1.481.395,2.6,3.85,2.2a88.36,88.36,0,0,0,42.518-16.454c0-.856-2.83-12.439-2.83-12.439S55.495,120.21,39.6,122.942c-.823,0-2.5,1.251-2.9-3.455A89.906,89.906,0,0,1,38.481,83.55C34.4,85.2,23.54,88.322,23.54,88.322Z" transform="translate(53.835 191.395)" fill="#fff"/>
    <path id="Caminho_25" data-name="Caminho 25" d="M119.083,89.049s-.823,28.433-8.82,44.131c-.724,1.448-.592,2.6-4.015,1.975a88.491,88.491,0,0,1-41.4-18.922c0-.823,3.587-12.209,3.587-12.209s16.751,15.039,32.415,18.758c.856,0,2.435,1.382,3.126-3.291a89.94,89.94,0,0,0,.494-35.969C108.421,85.363,119.083,89.049,119.083,89.049Z" transform="translate(148.57 191.326)" fill="#fff"/>
    <path id="Caminho_26" data-name="Caminho 26" d="M65.748,87A19.548,19.548,0,1,1,85.3,67.448,19.548,19.548,0,0,1,65.748,87Zm0-29.98a10.432,10.432,0,1,0,10.4,10.432,10.432,10.432,0,0,0-10.4-10.432Z" transform="translate(105.846 109.726)" fill="#fff"/>
  </g>
</svg>
